<?xml version="1.0" encoding="UTF-8"?>
<!DOCTYPE svg PUBLIC "-//W3C//DTD SVG 1.1//EN" "http://www.w3.org/Graphics/SVG/1.1/DTD/svg11.dtd">
<!-- Creator: CorelDRAW -->
<svg xmlns="http://www.w3.org/2000/svg" xml:space="preserve" width="2048px" height="2048px" style="shape-rendering:geometricPrecision; text-rendering:geometricPrecision; image-rendering:optimizeQuality; fillRule:evenodd; clipRule:evenodd"
viewBox="0 0 2048 2048"
 xmlns:xlink="http://www.w3.org/1999/xlink">
 <defs>
  <style type="text/css">
   <![CDATA[
    .fil6 {fill:none}
    .fil2 {fill:#455A64}
    .fil3 {fill:#546E7A}
    .fil4 {fill:#9D4CAB}
    .fil1 {fill:#AB47BC}
    .fil5 {fill:#DE4378}
    .fil0 {fill:#EC407A}
   ]]>
  </style>
 </defs>
 <g id="Layer_x0020_1">
  <metadata id="CorelCorpID_0Corel-Layer"/>
  <g id="_363999864">
   <path id="_364000944" class="fil0" d="M874.468 1792.01c-312.117,-60.4229 -558.049,-306.351 -618.468,-618.48l274.654 -39.2351c42.4252,190.599 192.456,340.649 383.047,383.074l-39.2327 274.641z"/>
   <path id="_364001112" class="fil1" d="M1792 1173.53c-60.4229,312.116 -306.35,558.046 -618.478,618.467l-39.2351 -274.655c190.596,-42.4252 340.648,-192.455 383.073,-383.046l274.64 39.2339z"/>
   <path id="_364001280" class="fil1" d="M913.699 530.633c-190.593,42.4252 -340.622,192.477 -383.046,383.075l-274.654 -39.2351c60.4193,-312.128 306.35,-558.057 618.466,-618.481l39.2339 274.641z"/>
   <path id="_364000608" class="fil0" d="M1173.52 255.992c312.115,60.4241 558.046,306.353 618.465,618.48l-274.654 39.2363c-42.424,-190.597 -192.453,-340.65 -383.044,-383.075l39.2327 -274.641z"/>
   <path id="_363999888" class="fil2" d="M701.313 1006.99c8.55355,-164.921 140.752,-297.129 305.673,-305.684l0 305.684 -305.673 0z"/>
   <path id="_364000296" class="fil3" d="M1037.86 698.17c170.561,8.84292 306.136,149.933 306.136,322.693 0,178.464 -144.673,323.137 -323.137,323.137 -172.759,0 -313.847,-135.573 -322.693,-306.13l322.576 0 0.111024 0.0011811 0.0011811 -0.0011811 0.438189 -0.00354331 0.0011811 -0.00236221 0.434646 -0.0153543 0.0011811 -0.0011811 0.431103 -0.0271654 0.0011811 -0.0011811 0.429922 -0.0366142 0.0011811 -0.0011811 0.425197 -0.0472441 0.0011811 -0.0011811 0.424016 -0.0578741 0.0011811 -0.0011811 0.419292 -0.0696851 0.0011811 -0.0011811 0.415748 -0.0779528 0.0011811 -0.0011811 0.411024 -0.0885827 0.0011811 -0.0011811 0.408662 -0.0992127 0.0011811 -0.0011811 0.403937 -0.108662 0.0011811 -0.0011811 0.400394 -0.11811 0.0011811 -0.0011811 0.396851 -0.127559 0.0011811 -0.0011811 0.392126 -0.137008 0.0011811 -0.0011811 0.386221 -0.146457 0.0011811 -0.0011811 0.383859 -0.155906 0.0011811 -0.0011811 0.377953 -0.165354 0.0011811 -0.0011811 0.372048 -0.172441 0.0011811 -0.0011811 0.368504 -0.183071 0.0011811 -0.0011811 0.362599 -0.190158 0.0011811 -0.0011811 0.357874 -0.199606 0.0011811 -0.0011811 0.351969 -0.207874 0.0011811 -0.0011811 0.346063 -0.216142 0.0011811 -0.0011811 0.341339 -0.22441 0.00236221 -0.0011811 0.334252 -0.232677 0.0011811 -0.0011811 0.329528 -0.239764 0.0011811 -0.0011811 0.322441 -0.246851 0.0011811 -0.0011811 0.317717 -0.255118 0.0011811 -0.0011811 0.31063 -0.262205 0.0011811 -0.0011811 0.303544 -0.270473 0.0011811 -0.0011811 0.297638 -0.276378 0.0011811 -0.0011811 0.291733 -0.283465 0.0011811 -0.0011811 0.283465 -0.291733 0.0011811 -0.0011811 0.276378 -0.297638 0.0011811 -0.0011811 0.269292 -0.303544 0.00236221 -0.0011811 0.262205 -0.31063 0.0011811 -0.0011811 0.255118 -0.317717 0.0011811 -0.0011811 0.246851 -0.322441 0.0011811 -0.0011811 0.239764 -0.328347 0.0011811 -0.0011811 0.232677 -0.335433 0.0011811 -0.0011811 0.22441 -0.341339 0.0011811 -0.0011811 0.216142 -0.347244 0.0011811 -0.0011811 0.206693 -0.351969 0.00236221 -0.0011811 0.199606 -0.357874 0.0011811 -0.0011811 0.190158 -0.362599 0.0011811 -0.0011811 0.18189 -0.367323 0.0011811 -0.0011811 0.173622 -0.373229 0.0011811 -0.0011811 0.164173 -0.377953 0.0011811 -0.0011811 0.155906 -0.382677 0.0011811 -0.0011811 0.147638 -0.387402 0.0011811 -0.0011811 0.137008 -0.390945 0.0011811 -0.00236221 0.127559 -0.39567 0.0011811 -0.00236221 0.11811 -0.400394 0.0011811 -0.0011811 0.108662 -0.403937 0.0011811 -0.0011811 0.0992127 -0.407481 0.0011811 -0.00236221 0.0885827 -0.411024 0.0011811 -0.0011811 0.0779528 -0.415748 0.0011811 -0.0011811 0.0696851 -0.419292 0.0011811 -0.0011811 0.0578741 -0.422835 0.0011811 -0.0011811 0.0472441 -0.426378 0.0011811 -0.0011811 0.0366142 -0.42874 0.0011811 -0.0011811 0.0259843 -0.432284 0.0011811 -0.0011811 0.0165354 -0.434646 0.0011811 -0.0011811 0.00354331 -0.438189 0.0011811 -0.0011811 -0.0011811 -0.109843 0 -322.582z"/>
   <path id="_364000200" class="fil4" d="M393.656 894.138c51.4737,-251.175 249.301,-449.005 500.476,-500.481l-19.6666 -137.665c-312.116,60.4241 -558.046,306.353 -618.466,618.481l137.656 19.6642z"/>
   <path id="_363999840" class="fil5" d="M1791.99 874.472c-60.4182,-312.127 -306.35,-558.056 -618.465,-618.48l-19.6654 137.662c251.178,51.4725 449.012,249.304 500.487,500.481l137.643 -19.663z"/>
   <path id="_364000176" class="fil4" d="M1173.52 1791.99c312.128,-60.4205 558.055,-306.351 618.478,-618.467l-137.656 -19.6654c-51.4737,251.178 -249.306,449.009 -500.484,500.483l19.663 137.649z"/>
   <path id="_364000104" class="fil5" d="M874.468 1792.01l19.6654 -137.665c-251.175,-51.4748 -449.003,-249.305 -500.477,-500.48l-137.656 19.6642c60.4193,312.129 306.351,558.057 618.468,618.48z"/>
  </g>
 </g>
 <rect class="fil6" width="2048" height="2048"/>
</svg>
